<?xml version="1.0" encoding="UTF-8"?>
<svg id="Layer_1" xmlns="http://www.w3.org/2000/svg" version="1.1" viewBox="0 0 40 40">
  <!-- Generator: Adobe Illustrator 29.1.0, SVG Export Plug-In . SVG Version: 2.1.0 Build 142)  -->
  <rect x="18.5" y="28.7" width="3" height="8.3"/>
  <path d="M20,9s2,3.6,2,8-.2,2.4-.4,3.4c.5-.8,1.2-1.7,2-2.5,2.8-2.8,6.4-3.8,6.4-3.8,0,0-1,3.5-3.8,6.4-1.3,1.3-2.8,2.2-4,2.8,1-.3,2.2-.5,3.5-.5,3.2,0,5.7,1.4,5.7,1.4,0,0-2.6,1.4-5.7,1.4s-3-.4-4-.7c.6.4,1.4.9,2,1.5,1.7,1.7,2.3,3.8,2.3,3.8,0,0-2.1-.6-3.8-2.3-.9-.9-1.5-1.9-1.9-2.7l-.3-.7-.3.7c-.4.8-1,1.8-1.9,2.7-1.7,1.7-3.8,2.3-3.8,2.3,0,0,.6-2.1,2.3-3.8.7-.7,1.4-1.2,2-1.5-1,.4-2.5.7-4,.7-3.2,0-5.7-1.4-5.7-1.4,0,0,2.6-1.4,5.7-1.4s2.5.2,3.5.5c-1.2-.6-2.7-1.5-4-2.8-2.8-2.8-3.8-6.4-3.8-6.4,0,0,3.5,1,6.4,3.8.8.8,1.5,1.7,2,2.5-.2-1-.4-2.2-.4-3.4,0-4.4,2-8,2-8M20,2.8l-2.6,4.8c0,.1-1.3,2.5-2,5.8-2.3-1.4-4.2-2-4.5-2.1l-5.2-1.5,1.5,5.2c0,.3.9,2.9,2.8,5.5-1.5.5-2.6,1-2.7,1.1l-4.8,2.6,4.8,2.6c.2.1,1.9,1,4.4,1.5-.2.6-.4,1-.4,1.1l-1.5,5.2,5.2-1.5c.3,0,2.9-.9,5.1-3.1,0,0,0,0,0,0,0,0,0,0,0,0,2.2,2.2,4.8,3,5.1,3.1l5.2,1.5-1.5-5.2c0-.1-.1-.5-.4-1.1,2.4-.5,4.1-1.4,4.4-1.5l4.8-2.6-4.8-2.6c-.2-.1-1.2-.6-2.7-1.1,1.9-2.6,2.7-5.2,2.8-5.5l1.5-5.2-5.2,1.5c-.3,0-2.3.7-4.5,2.1-.6-3.3-1.9-5.7-2-5.8l-2.6-4.8h0Z"/>
</svg>